<svg xmlns="http://www.w3.org/2000/svg" viewBox="0 0 30 24"><defs><style>.a{fill:#a0cc3a;}</style></defs><title>Asset 4</title><path class="a" d="M19,23H2.49A1.5,1.5,0,0,1,1,21.5V2.5A1.5,1.5,0,0,1,2.49,1h15A1.5,1.5,0,0,1,19,2.5v3h1V2.5A2.5,2.5,0,0,0,17.46,0h-15A2.5,2.5,0,0,0,0,2.5v19A2.5,2.5,0,0,0,2.49,24H20V21.5H19Z"/><rect class="a" x="7.48" y="4" width="8.98" height="1"/><rect class="a" x="7.48" y="7" width="8.98" height="1"/><rect class="a" x="7.48" y="10" width="3.99" height="1"/><rect class="a" x="7.48" y="13" width="3.99" height="1"/><rect class="a" x="3.49" y="4" width="2" height="1"/><rect class="a" x="3.49" y="7" width="2" height="1"/><rect class="a" x="3.49" y="10" width="2" height="1"/><rect class="a" x="3.49" y="13" width="2" height="1"/><polygon class="a" points="30 11.4 24.43 10.59 21.95 5.54 19.46 10.59 13.89 11.4 17.92 15.34 16.97 20.89 20.87 18.84 19.8 18.27 18.29 19.07 18.99 14.99 16.04 12.1 20.12 11.51 21.95 7.8 23.77 11.51 27.86 12.1 24.9 14.99 25.6 19.07 21.95 17.14 20.87 17.71 26.92 20.89 25.97 15.34 30 11.4"/></svg>