<svg xmlns="http://www.w3.org/2000/svg" viewBox="0 0 51.95 51.95"><defs><style>.cls-1{fill:#ffdd7b;}</style></defs><title>Zasób 18</title><g id="Warstwa_2" data-name="Warstwa 2"><g id="Layer_1" data-name="Layer 1"><polygon class="cls-1" points="51.95 19.48 35.9 19.48 36.98 22.73 43.12 22.73 34.57 30 32.89 31.43 33.6 33.52 36.84 43.05 27.93 36.37 25.98 34.91 24.03 36.37 15.11 43.05 18.36 33.52 19.07 31.43 17.38 30 8.83 22.73 19.48 22.73 21.82 22.73 22.56 20.51 25.98 10.27 29.39 20.51 30.13 22.73 32.47 22.73 33.55 22.73 32.47 19.48 31.93 17.86 25.98 0 19.48 19.48 0 19.48 15.28 32.47 8.66 51.95 25.98 38.96 43.29 51.95 36.67 32.47 51.95 19.48"/></g></g></svg>