<?xml version="1.0" encoding="utf-8"?>
<!-- Generator: Adobe Illustrator 23.0.2, SVG Export Plug-In . SVG Version: 6.00 Build 0)  -->
<svg version="1.1" id="ikony" xmlns="http://www.w3.org/2000/svg" xmlns:xlink="http://www.w3.org/1999/xlink" x="0px" y="0px"
	 viewBox="0 0 24 24" style="enable-background:new 0 0 24 24;" xml:space="preserve">
<style type="text/css">
	.st0{fill:#FFCB59;}
	.st1{fill:#00E59B;}
	.st2{fill:#E6AA9A;}
	.st3{fill:#AAD821;}
	.st4{fill:#A79797;}
	.st5{fill:#919396;}
	.st6{fill:#E6456D;}
	.st7{fill:#3398FF;}
	.st8{fill:#FF9E4A;}
	.st9{fill:#FFFFFF;}
	.st10{fill:none;stroke:#919396;stroke-miterlimit:10;}
	.st11{fill:none;}
	.st12{fill:none;stroke:#1477EF;stroke-miterlimit:10;}
	.st13{fill:none;stroke:#4479B2;stroke-miterlimit:10;}
	.st14{fill:none;stroke:#919396;stroke-width:0.9905;stroke-miterlimit:10;}
	.st15{fill:none;stroke:#919396;stroke-width:1.0068;stroke-miterlimit:10;}
	.st16{fill:none;stroke:#919396;stroke-width:1.1058;stroke-miterlimit:10;}
	.st17{fill:none;stroke:#919396;stroke-width:1.2857;stroke-miterlimit:10;}
	.st18{fill:none;stroke:#919396;stroke-width:1.1847;stroke-miterlimit:10;}
	.st19{fill:none;stroke:#919396;stroke-linejoin:bevel;stroke-miterlimit:10;}
	.st20{fill:#8CC63F;}
	.st21{fill:none;stroke:#8CC63F;stroke-miterlimit:10;}
	.st22{fill:none;stroke:#919396;stroke-width:2.1271;stroke-miterlimit:10;}
</style>
<path class="st5" d="M12,0C5.4,0,0,5.4,0,12s5.4,12,12,12s12-5.4,12-12S18.6,0,12,0z M12,23C5.9,23,1,18.1,1,12C1,5.9,5.9,1,12,1
	s11,4.9,11,11C23,18.1,18.1,23,12,23z M10.4,10.1h1.3V18h1.2V9.2h-2.4V10.1z M13,5.8c0,0.5-0.4,1-1,1c-0.5,0-1-0.4-1-1
	c0-0.5,0.4-1,1-1C12.6,4.8,13,5.3,13,5.8z"/>
</svg>
