<?xml version="1.0" encoding="utf-8"?>
<!-- Generator: Adobe Illustrator 23.0.1, SVG Export Plug-In . SVG Version: 6.00 Build 0)  -->
<svg version="1.1" id="ikony" xmlns="http://www.w3.org/2000/svg" xmlns:xlink="http://www.w3.org/1999/xlink" x="0px" y="0px"
	 viewBox="0 0 24 24" style="enable-background:new 0 0 24 24;" xml:space="preserve">
<style type="text/css">
	.st0{fill:#FFCB59;}
	.st1{fill:#00E59B;}
	.st2{fill:#E6AA9A;}
	.st3{fill:#AAD821;}
	.st4{fill:#A79797;}
	.st5{fill:#E6456D;}
	.st6{fill:#919396;}
	.st7{fill:#3398FF;}
	.st8{fill:#FF9E4A;}
</style>
<path class="st6" d="M14,7.3L7.7,1H0v1.7l7,7v5l9.3,9.3H24v-1.7L18.7,17l5.3-5.3V0h-2.7L14,7.3z M1,2.3V2h6.3l6,6L8,13.3V4H7v4.3
	L1,2.3z M23,23h-6.3l-8.5-8.5L16,6.7V21h1v-4.3l6,6V23z M23,1v10.3l-5,5l-1-1V5.7L21.7,1H23z"/>
</svg>
