<?xml version="1.0" encoding="UTF-8"?>
<svg width="48px" height="48px" viewBox="0 0 48 48" version="1.1" xmlns="http://www.w3.org/2000/svg" xmlns:xlink="http://www.w3.org/1999/xlink">
    <!-- Generator: Sketch 57.1 (83088) - https://sketch.com -->
    <title>moj-empik_icon</title>
    <desc>Created with Sketch.</desc>
    <g id="moj-empik" stroke="none" stroke-width="1" fill="none" fill-rule="evenodd">
        <path d="M18,14 L30,14 L30,20.3704 C30,22.0996 29.9006,23.6296 29.7038,24.963 C29.5058,26.2962 29.1482,27.5556 28.6296,28.7408 C28.111,29.926 27.4314,31.0742 26.5924,32.1852 C25.7524,33.2964 24.7152,34.5186 23.4814,35.852 L20.0738,32.4446 C21.2096,31.2594 22.0856,30.1368 22.7036,29.0742 C23.3204,28.0126 23.7522,26.9884 24,26 L18,26 L18,14 Z M48,14 L48,34 C48,37.3138 45.3138,40 42,40 L6,40 C2.6862,40 0,37.3138 0,34 L0,14 C0,10.6862 2.6862,8 6,8 L42,8 C45.3138,8 48,10.6862 48,14 Z M46,14 C46,11.7944 44.2056,10 42,10 L6,10 C3.7944,10 2,11.7944 2,14 L2,23.9994 L14,23.9994 L14,25.9994 L2,25.9994 L2,34 C2,36.2056 3.7944,38 6,38 L42,38 C44.2056,38 46,36.2056 46,34 L46,25.9994 L34,25.9994 L34,23.9994 L46,23.9994 L46,14 Z" id="Shape" fill="#919396" fill-rule="nonzero"></path>
    </g>
</svg>