<?xml version="1.0" encoding="utf-8"?>
<!-- Generator: Adobe Illustrator 23.0.1, SVG Export Plug-In . SVG Version: 6.00 Build 0)  -->
<svg version="1.1" id="ikony" xmlns="http://www.w3.org/2000/svg" xmlns:xlink="http://www.w3.org/1999/xlink" x="0px" y="0px"
	 viewBox="0 0 24 24" style="enable-background:new 0 0 24 24;" xml:space="preserve">
<style type="text/css">
	.st0{fill:#FFCB59;}
	.st1{fill:#00E59B;}
	.st2{fill:#E6AA9A;}
	.st3{fill:#AAD821;}
	.st4{fill:#A79797;}
	.st5{fill:#E6456D;}
	.st6{fill:#919396;}
	.st7{fill:#3398FF;}
	.st8{fill:#FF9E4A;}
</style>
<path class="st6" d="M23,3h-3V1h-1v2h-0.5h-13H5V1H4v2H1V1H0v23h1v-2h3v2h1v-2h0.5h13H19v2h1v-2h3v2h1V1h-1V3z M23,4v2h-3V4H23z
	 M20,16h3v2h-3V16z M20,15v-2h3v2H20z M20,12v-2h3v2H20z M20,9V7h3v2H20z M5.5,4h13H19v8H5V4H5.5z M4,9H1V7h3V9z M4,10v2H1v-2H4z
	 M4,13v2H1v-2H4z M4,16v2H1v-2H4z M4,4v2H1V4H4z M1,21v-2h3v2H1z M18.5,21h-13H5v-8h14v8H18.5z M20,21v-2h3v2H20z"/>
</svg>
