<?xml version="1.0" encoding="utf-8"?>
<!-- Generator: Adobe Illustrator 23.0.1, SVG Export Plug-In . SVG Version: 6.00 Build 0)  -->
<svg version="1.1" id="ikony" xmlns="http://www.w3.org/2000/svg" xmlns:xlink="http://www.w3.org/1999/xlink" x="0px" y="0px"
	 viewBox="0 0 24 24" style="enable-background:new 0 0 24 24;" xml:space="preserve">
<style type="text/css">
	.st0{fill:#FFCB59;}
	.st1{fill:#00E59B;}
	.st2{fill:#E6AA9A;}
	.st3{fill:#AAD821;}
	.st4{fill:#A79797;}
	.st5{fill:#E6456D;}
	.st6{fill:#919396;}
	.st7{fill:#3398FF;}
	.st8{fill:#FF9E4A;}
</style>
<path class="st0" d="M14,0H9.4l1.5,9H0v1c0,2.8,1.2,5.4,3.1,7.2C2.4,18,2,18.9,2,20c0,2.2,1.8,4,4,4s4-1.8,4-4h4c0,2.2,1.8,4,4,4
	s4-1.8,4-4c0-1.1-0.4-2-1.1-2.8c1.9-1.8,3.1-4.4,3.1-7.2C24,4.5,19.5,0,14,0z M9,20c0,1.7-1.3,3-3,3s-3-1.3-3-3c0-1.7,1.3-3,3-3
	S9,18.3,9,20z M18,23c-1.7,0-3-1.3-3-3c0-1.7,1.3-3,3-3s3,1.3,3,3C21,21.7,19.7,23,18,23z M20.1,16.6C19.5,16.2,18.8,16,18,16
	c-1.9,0-3.4,1.3-3.9,3c0,0-0.1,0-0.1,0h-4c0,0-0.1,0-0.1,0c-0.4-1.7-2-3-3.9-3c-0.8,0-1.5,0.2-2.1,0.6C2.1,15,1,12.6,1,10h14V9h-3.1
	l-1.3-8H14c5,0,9,4,9,9C23,12.6,21.9,15,20.1,16.6z"/>
</svg>
