<?xml version="1.0" encoding="utf-8"?>
<!-- Generator: Adobe Illustrator 23.0.1, SVG Export Plug-In . SVG Version: 6.00 Build 0)  -->
<svg version="1.1" id="ikony" xmlns="http://www.w3.org/2000/svg" xmlns:xlink="http://www.w3.org/1999/xlink" x="0px" y="0px"
	 viewBox="0 0 30 24" style="enable-background:new 0 0 30 24;" xml:space="preserve">
<style type="text/css">
	.st0{fill:#FFCB59;}
	.st1{fill:#00E59B;}
	.st2{fill:#E6AA9A;}
	.st3{fill:#AAD821;}
	.st4{fill:#A79797;}
	.st5{fill:#E6456D;}
	.st6{fill:#919396;}
	.st7{fill:#3398FF;}
	.st8{fill:#FF9E4A;}
</style>
<path class="st5" d="M30,0v23H20v-1h0h9V12h-6v-1h6V1h-8V0.5V0H30z M21.1,16.1c-0.3,0.3-0.5,0.4-0.9,0.6C19.9,16.9,19.4,17,19,17
	h-0.6c0.4,0.7,0.6,1.6,0.6,2.5c0,2.5-1.6,4.5-3.5,4.5c-1.5,0-2.8-1.3-3.3-3H9.8c-0.5,1.7-1.8,3-3.3,3C4.6,24,3,22,3,19.5
	c0-0.9,0.2-1.8,0.6-2.5H3c-0.8,0-1.6-0.3-2.1-0.9C0.3,15.6,0,14.8,0,14c0-0.8,0.3-1.6,0.9-2.1C1.4,11.3,2.2,11,3,11h3.5
	C5.6,9.9,5,8.5,5,7c0,0,0,0,0-0.1C3.3,6.7,2,5.3,2,3.5C2,1.6,3.6,0,5.5,0c1.2,0,2.3,0.6,2.9,1.6C9.2,1.2,10.1,1,11,1
	c0.9,0,1.8,0.2,2.6,0.6c0.6-1,1.7-1.6,2.9-1.6C18.4,0,20,1.6,20,3.5c0,1.8-1.3,3.2-3,3.4c0,0,0,0,0,0.1c0,1.5-0.6,2.9-1.5,4H19
	c0.5,0,1.1,0.2,1.5,0.4c0.2,0.1,0.4,0.3,0.6,0.5c0.6,0.6,0.9,1.3,0.9,2.1C22,14.8,21.7,15.6,21.1,16.1z M11,12c2.8,0,5-2.2,5-5
	c0-2.8-2.2-5-5-5C8.2,2,6,4.2,6,7C6,9.8,8.2,12,11,12z M14.4,2.1C15.7,3,16.6,4.4,16.9,6C18.1,5.8,19,4.7,19,3.5
	C19,2.1,17.9,1,16.5,1C15.6,1,14.9,1.4,14.4,2.1z M5.1,6c0.3-1.6,1.2-3,2.5-3.9C7.1,1.4,6.4,1,5.5,1C4.1,1,3,2.1,3,3.5
	C3,4.7,3.9,5.8,5.1,6z M9,19.5C9,17.6,7.9,16,6.5,16S4,17.6,4,19.5C4,21.4,5.1,23,6.5,23S9,21.4,9,19.5z M18,19.5
	c0-1.9-1.1-3.5-2.5-3.5c-1.4,0-2.5,1.6-2.5,3.5c0,1.9,1.1,3.5,2.5,3.5C16.9,23,18,21.4,18,19.5z M21,14c0-0.5-0.2-1-0.6-1.4
	c0,0,0,0,0,0C20,12.2,19.5,12,19,12h-4.7c-0.9,0.6-2.1,1-3.3,1c-1.2,0-2.4-0.4-3.3-1H3c-0.5,0-1,0.2-1.4,0.6C1.2,13,1,13.5,1,14
	c0,0.5,0.2,1,0.6,1.4C2,15.8,2.5,16,3,16h1.3c0.6-0.6,1.3-1,2.2-1c1.9,0,3.5,2,3.5,4.5c0,0.2,0,0.3,0,0.5H12c0-0.2,0-0.3,0-0.5
	c0-2.5,1.6-4.5,3.5-4.5c0.8,0,1.6,0.4,2.2,1H19c0.5,0,1-0.2,1.3-0.5c0,0,0.1,0,0.1-0.1C20.8,15,21,14.5,21,14z M22,6
	c0-1.1,0.9-2,2-2c1.1,0,2,0.9,2,2s-0.9,2-2,2C22.9,8,22,7.1,22,6z M23,6c0,0.6,0.4,1,1,1c0.6,0,1-0.4,1-1c0-0.6-0.4-1-1-1
	C23.4,5,23,5.4,23,6z M28,15c0,1.1-0.9,2-2,2c-1.1,0-2-0.9-2-2s0.9-2,2-2C27.1,13,28,13.9,28,15z M27,15c0-0.6-0.4-1-1-1
	c-0.6,0-1,0.4-1,1c0,0.6,0.4,1,1,1C26.6,16,27,15.6,27,15z M25,19c0,1.1-0.9,2-2,2c-1.1,0-2-0.9-2-2s0.9-2,2-2
	C24.1,17,25,17.9,25,19z M24,19c0-0.6-0.4-1-1-1c-0.6,0-1,0.4-1,1c0,0.6,0.4,1,1,1C23.6,20,24,19.6,24,19z"/>
</svg>
