<?xml version="1.0" encoding="utf-8"?>
<!-- Generator: Adobe Illustrator 23.0.1, SVG Export Plug-In . SVG Version: 6.00 Build 0)  -->
<svg version="1.1" id="ikony" xmlns="http://www.w3.org/2000/svg" xmlns:xlink="http://www.w3.org/1999/xlink" x="0px" y="0px"
	 viewBox="0 0 24 24" style="enable-background:new 0 0 24 24;" xml:space="preserve">
<style type="text/css">
	.st0{fill:#FFCB59;}
	.st1{fill:#00E59B;}
	.st2{fill:#E6AA9A;}
	.st3{fill:#AAD821;}
	.st4{fill:#A79797;}
	.st5{fill:#E6456D;}
	.st6{fill:#919396;}
	.st7{fill:#3398FF;}
	.st8{fill:#FF9E4A;}
</style>
<path class="st6" d="M21,3h-3V2h-1v1v1v1H7V4V3V2H6v1H3v21h18V3z M20,23H4V4h2v2h12V4h2V23z M12,1c1.1,0,2,0.9,2,2h1
	c0-1.7-1.3-3-3-3c-1.7,0-3,1.3-3,3h1C10,1.9,10.9,1,12,1z M10,15h8v-1h-8V15z M6,15h2v-1H6V15z M10,20h8v-1h-8V20z M6,20h2v-1H6V20z
	 M10,10h8V9h-8V10z M6,10h2V9H6V10z"/>
</svg>
