<?xml version="1.0" encoding="utf-8"?>
<!-- Generator: Adobe Illustrator 23.0.1, SVG Export Plug-In . SVG Version: 6.00 Build 0)  -->
<svg version="1.1" id="ikony" xmlns="http://www.w3.org/2000/svg" xmlns:xlink="http://www.w3.org/1999/xlink" x="0px" y="0px"
	 viewBox="0 0 24 24" style="enable-background:new 0 0 24 24;" xml:space="preserve">
<style type="text/css">
	.st0{fill:#FFCB59;}
	.st1{fill:#00E59B;}
	.st2{fill:#E6AA9A;}
	.st3{fill:#AAD821;}
	.st4{fill:#A79797;}
	.st5{fill:#E6456D;}
	.st6{fill:#919396;}
	.st7{fill:#3398FF;}
	.st8{fill:#FF9E4A;}
</style>
<path class="st6" d="M17,4H3v1h14V4z M17,7H3v1h14V7z M9,10H3v1h6V10z M9,13H3v1h6V13z M9,16H3v1h6V16z M3,20h6v-1H3V20z M17,10h-6
	v1h6V10z M17,13h-6v1h6V13z M17,16h-6v1h6V16z M11,20h6v-1h-6V20z M23,2h-3V0H1H0.5H0v21.5C0,22.9,1.1,24,2.5,24H18v-1H2.5
	C1.7,23,1,22.3,1,21.5V1h18v20.5c0,1.4,1.1,2.5,2.5,2.5s2.5-1.1,2.5-2.5V2h-0.5H23z M21.5,23c-0.8,0-1.5-0.7-1.5-1.5V3h3v18.5
	C23,22.3,22.3,23,21.5,23z"/>
</svg>
