<?xml version="1.0" encoding="utf-8"?>
<!-- Generator: Adobe Illustrator 23.0.1, SVG Export Plug-In . SVG Version: 6.00 Build 0)  -->
<svg version="1.1" id="ikony" xmlns="http://www.w3.org/2000/svg" xmlns:xlink="http://www.w3.org/1999/xlink" x="0px" y="0px"
	 viewBox="0 0 30 24" style="enable-background:new 0 0 30 24;" xml:space="preserve">
<style type="text/css">
	.st0{fill:#FFCB59;}
	.st1{fill:#00E59B;}
	.st2{fill:#E6AA9A;}
	.st3{fill:#AAD821;}
	.st4{fill:#A79797;}
	.st5{fill:#E6456D;}
	.st6{fill:#919396;}
	.st7{fill:#3398FF;}
	.st8{fill:#FF9E4A;}
</style>
<path class="st3" d="M23.5,1c-3.2,0-5.8,3.2-6.4,7.4l-6.6-6.6L0,12.3v1.4l2-2V24h17v-7.5c1.1,1.4,2.5,2.3,4,2.5v2.3h0v1.1V24h1v-1.7
	V19c3.4-0.4,6-4.2,6-9C30,5,27.1,1,23.5,1z M27.6,4.7L24,8.3V2C25.4,2.2,26.7,3.2,27.6,4.7z M23,14.3l-5-5c0.1-1.4,0.4-2.6,0.9-3.7
	L23,9.7V14.3z M24,9.7l4.1-4.1C28.6,6.7,28.9,8,29,9.3l-5,5V9.7z M23,2v6.3l-3.6-3.6C20.3,3.2,21.6,2.2,23,2z M12,15v8H9v-8H12z
	 M18,23h-5v-8h1.5H15v-1h-0.5h-8H6v1h0.5H8v8H3V10.7l7.5-7.5L17,9.7c0,0.1,0,0.2,0,0.3c0,1.8,0.4,3.4,1,4.8V23z M18,10.7l5,5v0h0V18
	C20.4,17.6,18.3,14.6,18,10.7z M24,18v-0.7h0v-0.3h0v-1.2l5-5C28.7,14.6,26.6,17.6,24,18z"/>
</svg>
