<?xml version="1.0" encoding="utf-8"?>
<!-- Generator: Adobe Illustrator 23.0.1, SVG Export Plug-In . SVG Version: 6.00 Build 0)  -->
<svg version="1.1" id="ikony" xmlns="http://www.w3.org/2000/svg" xmlns:xlink="http://www.w3.org/1999/xlink" x="0px" y="0px"
	 viewBox="0 0 24 24" style="enable-background:new 0 0 24 24;" xml:space="preserve">
<style type="text/css">
	.st0{fill:#FFCB59;}
	.st1{fill:#00E59B;}
	.st2{fill:#E6AA9A;}
	.st3{fill:#AAD821;}
	.st4{fill:#A79797;}
	.st5{fill:#E6456D;}
	.st6{fill:#919396;}
	.st7{fill:#3398FF;}
	.st8{fill:#FF9E4A;}
</style>
<path class="st2" d="M19,2c-2,0-3.7,1.3-3.9,3H13V0H6v5H3.5v1H6v3.7c-3.5,1.4-6,4.8-6,8.8c0,1.7,0.4,3.5,1,5.2L1.2,24h16.7l0.1-0.3
	c0.7-1.7,1-3.5,1-5.2c0-4-2.5-7.4-6-8.8V6h2.1C15.3,7.7,17,9,19,9c2.2,0,4-1.6,4-3.5C23,3.6,21.2,2,19,2z M18,18.5
	c0,1.5-0.3,3-0.8,4.5H1.8C1.3,21.5,1,20,1,18.5C1,13.8,4.8,10,9.5,10S18,13.8,18,18.5z M9.5,9C8.6,9,7.8,9.1,7,9.3V6h2.5V5H7V1h5
	v8.3C11.2,9.1,10.4,9,9.5,9z M19,8c-1.7,0-3-1.1-3-2.5C16,4.1,17.3,3,19,3s3,1.1,3,2.5C22,6.9,20.7,8,19,8z"/>
</svg>
