<?xml version="1.0" encoding="utf-8"?>
<!-- Generator: Adobe Illustrator 23.0.1, SVG Export Plug-In . SVG Version: 6.00 Build 0)  -->
<svg version="1.1" id="ikony" xmlns="http://www.w3.org/2000/svg" xmlns:xlink="http://www.w3.org/1999/xlink" x="0px" y="0px"
	 viewBox="0 0 24 24" style="enable-background:new 0 0 24 24;" xml:space="preserve">
<style type="text/css">
	.st0{fill:#FFCB59;}
	.st1{fill:#00E59B;}
	.st2{fill:#E6AA9A;}
	.st3{fill:#AAD821;}
	.st4{fill:#A79797;}
	.st5{fill:#E6456D;}
	.st6{fill:#919396;}
	.st7{fill:#3398FF;}
	.st8{fill:#FF9E4A;}
</style>
<path class="st6" d="M23,0h-0.7L12,10.3L1.7,0H1H0.5H0v0.5C0,3.9,1.3,7,3.7,9.4L8.3,14l-1.6,1.6C6,15.2,5.3,15,4.5,15
	C2,15,0,17,0,19.5S2,24,4.5,24S9,22,9,19.5c0-1.3-0.6-2.5-1.5-3.3L22.7,1H23c-0.1,2.9-1.3,5.6-3.3,7.7l-8,8l0.7,0.7l2.6-2.6l1.5,1.5
	c-0.9,0.8-1.5,2-1.5,3.3c0,2.5,2,4.5,4.5,4.5s4.5-2,4.5-4.5S22,15,19.5,15c-0.8,0-1.5,0.2-2.2,0.6L15.7,14l4.6-4.6
	C22.7,7,24,3.9,24,0.5V0h-0.5H23z M4.5,23C2.6,23,1,21.4,1,19.5S2.6,16,4.5,16S8,17.6,8,19.5S6.4,23,4.5,23z M4.4,8.7
	C2.3,6.6,1.1,3.9,1,1h0.3l10,10L9,13.3L4.4,8.7z M19.5,23c-1.9,0-3.5-1.6-3.5-3.5s1.6-3.5,3.5-3.5s3.5,1.6,3.5,3.5S21.4,23,19.5,23z
	"/>
</svg>
