<?xml version="1.0" encoding="utf-8"?>
<!-- Generator: Adobe Illustrator 23.0.1, SVG Export Plug-In . SVG Version: 6.00 Build 0)  -->
<svg version="1.1" id="ikony" xmlns="http://www.w3.org/2000/svg" xmlns:xlink="http://www.w3.org/1999/xlink" x="0px" y="0px"
	 viewBox="0 0 24 24" style="enable-background:new 0 0 24 24;" xml:space="preserve">
<style type="text/css">
	.st0{fill:#FFCB59;}
	.st1{fill:#00E59B;}
	.st2{fill:#E6AA9A;}
	.st3{fill:#AAD821;}
	.st4{fill:#A79797;}
	.st5{fill:#E6456D;}
	.st6{fill:#919396;}
	.st7{fill:#3398FF;}
	.st8{fill:#FF9E4A;}
</style>
<path class="st6" d="M12,0C5.4,0,0,5.4,0,12v0.7l1.8,1.8L0,16.3v4.4L3.3,24H7V13H3.3l-0.8,0.8L1,12.3V12C1,5.9,5.9,1,12,1
	c6.1,0,11,4.9,11,11v0.3l-1.5,1.5L20.7,13H17v11h3.7l3.3-3.3v-4.4l-1.8-1.8l1.8-1.8V12C24,5.4,18.6,0,12,0z M3.7,14H6v9H3.7L1,20.3
	v-3.6L3.7,14z M23,20.3L20.3,23H18v-9h2.3l2.7,2.7V20.3z M5,15H4v7h1V15z M19,22h1v-7h-1V22z"/>
</svg>
