<svg xmlns="http://www.w3.org/2000/svg" xmlns:xlink="http://www.w3.org/1999/xlink" viewBox="0 0 74.84 74.84"><defs><style>.cls-1{fill:none;}.cls-2{clip-path:url(#clip-path);}.cls-3{fill:#2938e5;}.cls-4{fill:#ffdd7b;}</style><clipPath id="clip-path" transform="translate(0)"><rect class="cls-1" width="74.84" height="74.84"/></clipPath></defs><title>Zasób 2</title><g id="Warstwa_2" data-name="Warstwa 2"><g id="Layer_1" data-name="Layer 1"><g class="cls-2"><path class="cls-3" d="M74.84,37.42A37.42,37.42,0,1,1,37.42,0,37.43,37.43,0,0,1,74.84,37.42" transform="translate(0)"/></g><polygon class="cls-4" points="63.4 28.96 47.34 28.96 48.42 32.2 54.56 32.2 46.01 39.47 44.33 40.9 45.04 42.99 48.28 52.53 39.37 45.84 37.42 44.38 35.47 45.84 26.55 52.53 29.8 42.99 30.51 40.9 28.82 39.47 20.27 32.2 30.92 32.2 33.26 32.2 34 29.98 37.42 19.74 40.83 29.98 41.57 32.2 43.91 32.2 44.99 32.2 43.91 28.96 43.37 27.33 37.42 9.47 30.92 28.96 11.44 28.96 26.72 41.95 20.1 61.43 37.42 48.44 54.73 61.43 48.11 41.95 63.4 28.96"/></g></g></svg>