<svg xmlns="http://www.w3.org/2000/svg" xmlns:xlink="http://www.w3.org/1999/xlink" viewBox="0 0 74.84 74.84"><defs><style>.cls-1{fill:none;}.cls-2{clip-path:url(#clip-path);}.cls-3{fill:#fff;}</style><clipPath id="clip-path" transform="translate(0)"><rect class="cls-1" width="74.84" height="74.84"/></clipPath></defs><title>Zasób 1</title><g id="Warstwa_2" data-name="Warstwa 2"><g id="Layer_1" data-name="Layer 1"><g class="cls-2"><path d="M74.84,37.42A37.42,37.42,0,1,1,37.42,0,37.43,37.43,0,0,1,74.84,37.42" transform="translate(0)"/></g><path class="cls-3" d="M50.48,28.52a68.27,68.27,0,0,1-.68,10.22A33.68,33.68,0,0,1,47.48,47a35.72,35.72,0,0,1-4.39,7.45,80.61,80.61,0,0,1-6.8,7.73l-7.42-7.41a39.55,39.55,0,0,0,5.84-7.29,22.43,22.43,0,0,0,2.74-6.71H24.36V14.65H50.48Z" transform="translate(0)"/></g></g></svg>