<svg xmlns="http://www.w3.org/2000/svg" viewBox="0 0 24 24"><defs><style>.a{fill:#a0d035;}</style></defs><title>Asset 1</title><path class="a" d="M15.8,11.4h0c.5.3,1,.6,1.4.9l.6-.9a8.34,8.34,0,0,0-1.2-.8Z"/><path class="a" d="M18,9.2h0a5.55,5.55,0,0,1,.8.6l.5-.8a4.23,4.23,0,0,0-.7-.5Z"/><path class="a" d="M13.4,13.7a5.29,5.29,0,0,1,2.1,1.1l.5-.9a8.11,8.11,0,0,0-1.8-1Z"/><path class="a" d="M12,16a.94.94,0,0,0-1,1h2A.94.94,0,0,0,12,16Z"/><path class="a" d="M12,0A12,12,0,1,0,24,12,12,12,0,0,0,12,0ZM6,21.2a5.55,5.55,0,0,1-.8-.6h0L20.6,5.1s.4.5.6.8A11,11,0,0,1,6,21.2ZM12,1a10.82,10.82,0,0,1,7.9,3.4l-2,2L16.8,7.5A12.68,12.68,0,0,0,4.6,8.9l.5.8A11.47,11.47,0,0,1,16,8.2L14.4,9.8a10.07,10.07,0,0,0-2.5-.3,9.52,9.52,0,0,0-5.7,1.9l.5.8a8.84,8.84,0,0,1,5.2-1.8,7.77,7.77,0,0,1,1.6.2l-1.9,1.9A7,7,0,0,0,7.9,14l.5.8a6.06,6.06,0,0,1,2.1-1.1L8.8,15.4,4.3,19.9A11.12,11.12,0,0,1,1,12,11,11,0,0,1,12,1Z"/></svg>