<?xml version="1.0" encoding="utf-8"?>
<!-- Generator: Adobe Illustrator 23.0.1, SVG Export Plug-In . SVG Version: 6.00 Build 0)  -->
<svg version="1.1" id="Warstwa_1" xmlns="http://www.w3.org/2000/svg" xmlns:xlink="http://www.w3.org/1999/xlink" x="0px" y="0px"
	 viewBox="0 0 24 24" style="enable-background:new 0 0 24 24;" xml:space="preserve">
<style type="text/css">
	.st0{fill:#00C5CF;}
	.st1{fill:#FF5533;}
	.st2{fill:#9F5AFF;}
</style>
<g>
	<polygon class="st1" points="9.1,0 17.8,0 10.7,5.2 	"/>
	<path class="st1" d="M18.5,6.9V1.1L13.2,5l5.3,3.9C18.5,8.4,18.5,7.6,18.5,6.9z"/>
	<polygon class="st1" points="12.1,8.7 5.5,8.7 5.5,13.2 10.7,13.2 	"/>
	<path class="st1" d="M13.9,7.3L11.7,14c-0.2,0.7-0.7,1.6-1.1,2.5c-0.7,1.1-1.6,2.3-2.8,3.7l3.7,3.7c1.4-1.4,2.5-2.7,3.4-3.9
		c0.9-1.2,1.6-2.5,2.1-3.7c0.5-1.2,0.9-2.7,1.2-4.1c0-0.5,0.2-1.1,0.2-1.6L13.9,7.3z"/>
	<polygon class="st1" points="10.1,7.5 7.8,0 5.5,0 5.5,7.5 	"/>
</g>
</svg>
