<svg id="ikony" xmlns="http://www.w3.org/2000/svg" viewBox="0 0 24 24"><defs><style>.cls-1{fill:#919396;}</style></defs><title>wszytkie ikony</title><path class="cls-1" d="M20,0H5.5A2.5,2.5,0,0,0,3,2.5v19A2.5,2.5,0,0,0,5.5,24H21V0ZM4,21.5A1.5,1.5,0,0,1,5.5,20H20v3H5.5A1.5,1.5,0,0,1,4,21.5ZM20,19H5.5a2.53,2.53,0,0,0-1.5.51V2.5A1.5,1.5,0,0,1,5.5,1H20V19Z"/><path class="cls-1" d="M6.22,10.09a1.36,1.36,0,0,1,.55-.74,1.62,1.62,0,0,1,.94-.27,1.9,1.9,0,0,1,.66.11,1.43,1.43,0,0,1,.48.29,1.27,1.27,0,0,1,.28.44,1.37,1.37,0,0,1,.1.54v2.46H8.35v-.39a1.27,1.27,0,0,1-.51.35,1.56,1.56,0,0,1-.57.1,1.57,1.57,0,0,1-.49-.08,1.13,1.13,0,0,1-.4-.23,1,1,0,0,1-.27-.36A1.06,1.06,0,0,1,6,11.83a1.22,1.22,0,0,1,.16-.6,1.14,1.14,0,0,1,.45-.42l1.6-.11v-.32A.49.49,0,0,0,8.07,10,.48.48,0,0,0,7.7,9.9a.6.6,0,0,0-.39.11.88.88,0,0,0-.23.32Zm1.27,2.16a.92.92,0,0,0,.4-.08.79.79,0,0,0,.32-.29v-.5l-1.06.1a.43.43,0,0,0-.16.34.38.38,0,0,0,.13.32A.53.53,0,0,0,7.49,12.25Z"/><path class="cls-1" d="M10.26,7.54h1V9.42a1.52,1.52,0,0,1,.43-.2,1.85,1.85,0,0,1,.5-.06,1.44,1.44,0,0,1,.62.13,1.27,1.27,0,0,1,.48.38,1.58,1.58,0,0,1,.31.59,2.79,2.79,0,0,1,.11.79,2.35,2.35,0,0,1-.12.77,1.88,1.88,0,0,1-.37.61,1.62,1.62,0,0,1-.58.4,2.09,2.09,0,0,1-.81.15H10.26ZM12,10a1,1,0,0,0-.67.22v1.94h.58c.57,0,.85-.38.85-1.14a1.31,1.31,0,0,0-.18-.76A.66.66,0,0,0,12,10Z"/><path class="cls-1" d="M16.61,9.88a.89.89,0,0,0-.77.3,1.44,1.44,0,0,0-.21.83,1.87,1.87,0,0,0,.07.52,1.35,1.35,0,0,0,.19.36.9.9,0,0,0,.27.21.85.85,0,0,0,.31.06.8.8,0,0,0,.44-.11.7.7,0,0,0,.29-.36L18,12a1.22,1.22,0,0,1-.18.36,1.4,1.4,0,0,1-.33.31,1.45,1.45,0,0,1-.47.22,2.47,2.47,0,0,1-.63.08,1.9,1.9,0,0,1-.73-.14,1.49,1.49,0,0,1-.56-.39,1.66,1.66,0,0,1-.36-.62,2.26,2.26,0,0,1-.13-.81,3,3,0,0,1,.1-.75,1.79,1.79,0,0,1,.34-.62,1.72,1.72,0,0,1,.62-.41,2.33,2.33,0,0,1,.94-.16,4.87,4.87,0,0,1,.65.05,3.93,3.93,0,0,1,.58.12v1.3H17V9.91A1.58,1.58,0,0,0,16.61,9.88Z"/></svg>