<?xml version="1.0" encoding="UTF-8"?>
<svg width="48px" height="48px" viewBox="0 0 48 48" version="1.1" xmlns="http://www.w3.org/2000/svg" xmlns:xlink="http://www.w3.org/1999/xlink">
    <!-- Generator: Sketch 57.1 (83088) - https://sketch.com -->
    <title>artykuly-dla-zwierzat_icon</title>
    <desc>Created with Sketch.</desc>
    <g id="artykuly-dla-zwierzat" stroke="none" stroke-width="1" fill="none" fill-rule="evenodd">
        <path d="M36.6,29.2352904 C35.8,28.8354915 35,28.4356927 34,28.2357933 L34,28.0358939 C34,22.4387101 29.6,18.0409228 24,18.0409228 C18.4,18.0409228 14,22.4387101 14,28.0358939 L14,28.2357933 C8.6,29.4351898 5.2,34.6325748 6.2,40.0298591 C7.4,45.4271435 12.6,48.8254337 18,47.8259366 C19,47.6260372 19.8,47.4261377 20.6,46.8264395 C22.6,45.8269424 25.2,45.8269424 27.2,46.8264395 C32,49.425132 38.2,47.4261377 40.8,42.6285516 C43.4,37.8309655 41.6,31.6340834 36.6,29.2352904 Z M32,46.0268418 C30.6,46.0268418 29.4,45.6270429 28.2,45.0273447 C25.6,43.6280487 22.4,43.6280487 19.8,45.0273447 C18.6,45.6270429 17.4,46.0268418 16,46.0268418 C11.6,46.0268418 8,42.4286522 8,38.0308649 C8,33.6330777 11.6,30.0348881 16,30.0348881 L16,28.0358939 C16,23.6381066 19.6,20.039917 24,20.039917 C28.4,20.039917 32,23.6381066 32,28.0358939 L32,30.0348881 C36.4,30.0348881 40,33.6330777 40,38.0308649 C40,42.4286522 36.4,46.0268418 32,46.0268418 Z M36.2,1.64917023 C34,-0.549723409 30,-0.549723409 27.8,1.64917023 C26.6,2.84856676 26,4.44776213 26,6.0469575 C26,7.64615287 26.6,9.24534824 27.8,10.2448453 C29,11.4442419 30.4,12.0439401 32,12.0439401 C33.6,12.0439401 35,11.4442419 36.2,10.2448453 C37.4,9.04544882 38,7.64615287 38,6.0469575 C38,4.44776213 37.4,2.84856676 36.2,1.64917023 Z M34.8,8.8455494 C33.2,10.4447448 30.6,10.4447448 29.2,8.8455494 C28.4,8.04595171 28,7.04645461 28,6.0469575 C28,5.04746039 28.4,4.04796328 29.2,3.2483656 C30,2.44876791 31,2.04896907 32,2.04896907 C33,2.04896907 34,2.44876791 34.8,3.2483656 C35.6,3.84806386 36,4.84756097 36,6.0469575 C36,7.04645461 35.6,8.04595171 34.8,8.8455494 Z M20.2,1.64917023 C18,-0.549723409 14,-0.549723409 11.8,1.64917023 C10.6,2.84856676 10,4.44776213 10,6.0469575 C10,7.64615287 10.6,9.24534824 11.8,10.2448453 C13,11.4442419 14.4,12.0439401 16,12.0439401 C17.6,12.0439401 19,11.4442419 20.2,10.2448453 C21.4,9.04544882 22,7.64615287 22,6.0469575 C22,4.44776213 21.4,2.84856676 20.2,1.64917023 Z M18.8,8.8455494 C17.2,10.4447448 14.6,10.4447448 13.2,8.8455494 C12.4,8.04595171 12,7.04645461 12,6.0469575 C12,5.04746039 12.4,4.04796328 13.2,3.2483656 C14,2.44876791 15,2.04896907 16,2.04896907 C17,2.04896907 18,2.44876791 18.8,3.2483656 C19.6,3.84806386 20,4.84756097 20,6.0469575 C20,7.04645461 19.6,8.04595171 18.8,8.8455494 Z M10.2,13.6431355 C8,11.4442419 4,11.4442419 1.8,13.6431355 C0.6,14.842532 0,16.4417274 0,18.0409228 C0,19.6401182 0.6,21.2393135 1.8,22.2388106 C3,23.4382072 4.4,24.0379054 6,24.0379054 C7.6,24.0379054 9,23.4382072 10.2,22.2388106 C11.4,21.0394141 12,19.6401182 12,18.0409228 C12,16.4417274 11.4,14.842532 10.2,13.6431355 Z M8.8,20.8395147 C7.2,22.4387101 4.6,22.4387101 3.2,20.8395147 C2.4,20.039917 2,19.0404199 2,18.0409228 C2,17.0414257 2.4,16.0419286 3.2,15.2423309 C4,14.4427332 5,14.0429344 6,14.0429344 C7,14.0429344 8,14.4427332 8.8,15.2423309 C9.6,15.8420291 10,16.8415263 10,18.0409228 C10,19.0404199 9.6,20.039917 8.8,20.8395147 Z M46.2,13.6431355 C44,11.4442419 40,11.4442419 37.8,13.6431355 C36.6,14.842532 36,16.4417274 36,18.0409228 C36,19.6401182 36.6,21.2393135 37.8,22.2388106 C39,23.4382072 40.4,24.0379054 42,24.0379054 C43.6,24.0379054 45,23.4382072 46.2,22.2388106 C47.4,21.0394141 48,19.6401182 48,18.0409228 C48,16.4417274 47.4,14.842532 46.2,13.6431355 Z M44.8,20.8395147 C43.2,22.4387101 40.6,22.4387101 39.2,20.8395147 C38.4,20.039917 38,19.0404199 38,18.0409228 C38,17.0414257 38.4,16.0419286 39.2,15.2423309 C40,14.4427332 41,14.0429344 42,14.0429344 C43,14.0429344 44,14.4427332 44.8,15.2423309 C45.6,15.8420291 46,16.8415263 46,18.0409228 C46,19.0404199 45.6,20.039917 44.8,20.8395147 Z" id="Shape" fill="#FF9E4A" fill-rule="nonzero"></path>
    </g>
</svg>