<?xml version="1.0" encoding="utf-8"?>
<!-- Generator: Adobe Illustrator 23.0.1, SVG Export Plug-In . SVG Version: 6.00 Build 0)  -->
<svg version="1.1" id="ikony" xmlns="http://www.w3.org/2000/svg" xmlns:xlink="http://www.w3.org/1999/xlink" x="0px" y="0px"
	 viewBox="0 0 24 24" style="enable-background:new 0 0 24 24;" xml:space="preserve">
<style type="text/css">
	.st0{fill:#FFCB59;}
	.st1{fill:#00E59B;}
	.st2{fill:#E6AA9A;}
	.st3{fill:#AAD821;}
	.st4{fill:#A79797;}
	.st5{fill:#E6456D;}
	.st6{fill:#919396;}
	.st7{fill:#3398FF;}
	.st8{fill:#FF9E4A;}
</style>
<path class="st6" d="M7,8h2v1H7v2H6V9H4V8h2V6h1V8z M21,9c0,1.1-0.9,2-2,2s-2-0.9-2-2c0-1.1,0.9-2,2-2S21,7.9,21,9z M20,9
	c0-0.6-0.4-1-1-1c-0.6,0-1,0.4-1,1c0,0.6,0.4,1,1,1C19.6,10,20,9.6,20,9z M16,9c0,1.1-0.9,2-2,2s-2-0.9-2-2c0-1.1,0.9-2,2-2
	S16,7.9,16,9z M15,9c0-0.6-0.4-1-1-1c-0.6,0-1,0.4-1,1c0,0.6,0.4,1,1,1C14.6,10,15,9.6,15,9z M24,17.5c0,0.9-0.4,1.8-1,2.5
	c-0.7,0.7-1.5,1-2.5,1c-3.4,0-4.7-3.9-5.4-7H8.9c-0.7,3.1-2,7-5.4,7c-0.9,0-1.8-0.4-2.5-1c-0.7-0.7-1-1.5-1-2.5c0-4,0.5-7.8,1.3-11
	C1.7,5,3.1,4,4.7,4H17h2.3c1.6,0,3,1,3.4,2.5C23.5,9.7,24,13.5,24,17.5z M23,17.5c0-3.9-0.4-7.6-1.3-10.7C21.4,5.7,20.4,5,19.3,5H17
	H4.7C3.6,5,2.6,5.7,2.3,6.8C1.4,9.9,1,13.6,1,17.5c0,0.7,0.3,1.3,0.7,1.8C2.2,19.7,2.8,20,3.5,20c2,0,3.4-1.9,4.4-6H6v-1h12v1h-1.9
	c0.9,4.1,2.3,6,4.4,6c0.7,0,1.3-0.3,1.8-0.7C22.7,18.8,23,18.2,23,17.5z"/>
</svg>
