<?xml version="1.0" encoding="utf-8"?>
<!-- Generator: Adobe Illustrator 23.0.1, SVG Export Plug-In . SVG Version: 6.00 Build 0)  -->
<svg version="1.1" id="ikony" xmlns="http://www.w3.org/2000/svg" xmlns:xlink="http://www.w3.org/1999/xlink" x="0px" y="0px"
	 viewBox="0 0 24 24" style="enable-background:new 0 0 24 24;" xml:space="preserve">
<style type="text/css">
	.st0{fill:#FFCB59;}
	.st1{fill:#00E59B;}
	.st2{fill:#E6AA9A;}
	.st3{fill:#AAD821;}
	.st4{fill:#A79797;}
	.st5{fill:#E6456D;}
	.st6{fill:#919396;}
	.st7{fill:#3398FF;}
	.st8{fill:#FF9E4A;}
</style>
<path class="st6" d="M6,9h6h5V8h-5H6V9z M6,13h6h5v-1h-5H6V13z M17,5V4h-5H6v1h6H17z M17,16h-5H6v1h6h5V16z M10,22.5
	c0,0.8,0.7,1.5,1.5,1.5s1.5-0.7,1.5-1.5c0-0.8-0.7-1.5-1.5-1.5S10,21.7,10,22.5z M12,22.5c0,0.3-0.2,0.5-0.5,0.5S11,22.8,11,22.5
	c0-0.3,0.2-0.5,0.5-0.5S12,22.2,12,22.5z M19.1,22.1c0.6-0.6,0.9-1.3,0.9-2.1V3c0-0.8-0.3-1.6-0.9-2.1C18.6,0.3,17.8,0,17,0H6
	C5.2,0,4.4,0.3,3.9,0.9C3.3,1.4,3,2.2,3,3v17c0,0.8,0.3,1.6,0.9,2.1C4.4,22.7,5.2,23,6,23h3v-1H6c-0.5,0-1-0.2-1.4-0.6
	C4.2,21,4,20.5,4,20V3c0-0.5,0.2-1,0.6-1.4C5,1.2,5.5,1,6,1h11c0.5,0,1,0.2,1.4,0.6C18.8,2,19,2.5,19,3v17c0,0.5-0.2,1-0.6,1.4
	C18,21.8,17.5,22,17,22h-3v1h3C17.8,23,18.6,22.7,19.1,22.1z"/>
</svg>
