<?xml version="1.0" encoding="utf-8"?>
<!-- Generator: Adobe Illustrator 23.0.1, SVG Export Plug-In . SVG Version: 6.00 Build 0)  -->
<svg version="1.1" id="ikony" xmlns="http://www.w3.org/2000/svg" xmlns:xlink="http://www.w3.org/1999/xlink" x="0px" y="0px"
	 viewBox="0 0 24 24" style="enable-background:new 0 0 24 24;" xml:space="preserve">
<style type="text/css">
	.st0{fill:#FFCB59;}
	.st1{fill:#00E59B;}
	.st2{fill:#E6AA9A;}
	.st3{fill:#AAD821;}
	.st4{fill:#A79797;}
	.st5{fill:#E6456D;}
	.st6{fill:#919396;}
	.st7{fill:#3398FF;}
	.st8{fill:#FF9E4A;}
</style>
<path class="st6" d="M1,22h9c0.5,0,1,0.2,1.4,0.6C11.8,23,12,23.5,12,24h1c0-0.8-0.3-1.6-0.9-2.1C11.6,21.3,10.8,21,10,21H2V1h9V0H1
	V22z M13,22h10V0h-9c-0.8,0-1.6,0.3-2.1,0.9C11.3,1.4,11,2.2,11,3h1c0-0.5,0.2-1,0.6-1.4C13,1.2,13.5,1,14,1h8v20h-9V22z M11,5H4v1
	h7V5z M11,9H4v1h7V9z M11,13H4v1h7V13z M4,18h7v-1H4V18z M20,5h-7v1h7V5z M13,10h7V9h-7V10z M13,14h7v-1h-7V14z M13,18h7v-1h-7V18z"
	/>
</svg>
