<?xml version="1.0" encoding="UTF-8"?>
<svg width="48px" height="48px" viewBox="0 0 48 48" version="1.1" xmlns="http://www.w3.org/2000/svg" xmlns:xlink="http://www.w3.org/1999/xlink">
    <!-- Generator: Sketch 57.1 (83088) - https://sketch.com -->
    <title>agd_icon</title>
    <desc>Created with Sketch.</desc>
    <g id="agd" stroke="none" stroke-width="1" fill="none" fill-rule="evenodd">
        <path d="M43.3613445,16.0504202 C44.7731092,15.8487395 45.9831933,14.6386555 45.9831933,13.0252101 C45.9831933,11.4117647 44.5714286,10 42.9579832,10 L39.5294118,10 L38.9243697,10 L32.8739496,10 C20.7731092,10 7.2605042,18.6722689 6.65546218,30.1680672 L4.03361345,30.1680672 L0,38.2352941 L48,38.2352941 L48,31.1764706 L48,30.1680672 L48,23.512605 L43.3613445,16.0504202 Z M42.9579832,12.0168067 C43.5630252,12.0168067 43.9663866,12.4201681 43.9663866,13.0252101 C43.9663866,13.6302521 43.5630252,14.0336134 42.9579832,14.0336134 L41.9495798,14.0336134 L40.7394958,12.0168067 L42.9579832,12.0168067 Z M45.9831933,36.2184874 L3.22689076,36.2184874 L5.24369748,32.1848739 L45.9831933,32.1848739 L45.9831933,36.2184874 Z M8.67226891,30.1680672 C9.27731092,19.6806723 21.7815126,12.0168067 32.8739496,12.0168067 L38.3193277,12.0168067 L45.9831933,24.1176471 L45.9831933,30.1680672 L8.67226891,30.1680672 Z M36.302521,14.8403361 L35.697479,15.0420168 C33.8823529,15.4453782 17.7478992,18.4705882 17.7478992,25.1260504 L17.7478992,26.1344538 L42.7563025,26.1344538 L36.302521,14.8403361 Z M35.2941176,17.2605042 L39.1260504,24.1176471 L19.9663866,24.1176471 C21.3781513,20.8907563 29.6470588,18.2689076 35.2941176,17.2605042 Z" id="Shape" fill="#AAD821" fill-rule="nonzero"></path>
    </g>
</svg>