<?xml version="1.0" encoding="utf-8"?>
<!-- Generator: Adobe Illustrator 23.0.1, SVG Export Plug-In . SVG Version: 6.00 Build 0)  -->
<svg version="1.1" id="ikony" xmlns="http://www.w3.org/2000/svg" xmlns:xlink="http://www.w3.org/1999/xlink" x="0px" y="0px"
	 viewBox="0 0 24 24" style="enable-background:new 0 0 24 24;" xml:space="preserve">
<style type="text/css">
	.st0{fill:#FFCB59;}
	.st1{fill:#00E59B;}
	.st2{fill:#E6AA9A;}
	.st3{fill:#AAD821;}
	.st4{fill:#A79797;}
	.st5{fill:#E6456D;}
	.st6{fill:#919396;}
	.st7{fill:#3398FF;}
	.st8{fill:#FF9E4A;}
</style>
<path class="st1" d="M11.5,1C5.2,1,0,6.2,0,12.5C0,18.8,5.2,24,11.5,24C17.8,24,23,18.8,23,12.5C23,6.2,17.8,1,11.5,1z M19.1,5.2
	c-1.8,1.9-2.9,4.3-3,6.8h-4V2C14.8,2.2,17.3,3.4,19.1,5.2z M11,2v10H7c-0.1-2.5-1.2-4.9-3-6.8C5.7,3.4,8.2,2.2,11,2z M3.3,6
	C5,7.8,6,10.1,6,12.5c0,2.4-1,4.7-2.7,6.5C1.9,17.2,1,15,1,12.5S1.9,7.8,3.3,6z M3.9,19.8c1.8-1.9,2.9-4.3,3-6.8h4v10
	C8.2,22.8,5.7,21.6,3.9,19.8z M12,23V13h4c0.1,2.5,1.2,4.9,3,6.8C17.3,21.6,14.8,22.8,12,23z M19.7,19C18,17.2,17,14.9,17,12.5
	c0-2.4,1-4.7,2.7-6.5C21.1,7.8,22,10,22,12.5S21.1,17.2,19.7,19z"/>
</svg>
